<svg preserveAspectRatio="none" width="100%" height="100%" overflow="visible" style="display: block;" viewBox="0 0 19 19" fill="none" xmlns="http://www.w3.org/2000/svg">
<g id="icon">
<path id="Vector" d="M5.20347 2.53304L0.954726 5.18254L1.02633 6.16118L1.09794 7.1637H9.57156H18.0452L18.1168 6.16118L18.1884 5.18254L14.1067 2.65239C11.863 1.2441 9.90573 0.0506319 9.73864 0.00289319C9.59543 -0.0687148 7.54266 1.07701 5.20347 2.53304ZM10.6218 3.10591C11.7675 4.27551 10.765 6.13732 9.18965 5.75541C7.42332 5.30189 7.75749 2.74787 9.57156 2.74787C9.95347 2.74787 10.407 2.91495 10.6218 3.10591Z" fill="var(--fill-0, black)"/>
<path id="Vector_2" d="M2.64952 10.8627V13.727H4.08168H5.51384V10.8627V7.99834H4.08168H2.64952V10.8627Z" fill="var(--fill-0, black)"/>
<path id="Vector_3" d="M8.13919 10.8627V13.727H9.57135H11.0035V10.8627V7.99834H9.57135H8.13919V10.8627Z" fill="var(--fill-0, black)"/>
<path id="Vector_4" d="M13.6293 10.8627V13.727H15.0614H16.4936V10.8627V7.99834H15.0614H13.6293V10.8627Z" fill="var(--fill-0, black)"/>
<path id="Vector_5" d="M1.38442 14.8494C1.28894 14.921 1.21734 15.3029 1.21734 15.661C1.21734 16.1622 1.09799 16.3293 0.692211 16.4009C0.214824 16.4725 0.143216 16.6396 0.071608 17.7376L0 18.9788L9.5 18.9311L19 18.8595V17.666C19 16.6157 18.9284 16.4725 18.4749 16.4009C18.093 16.3532 17.9259 16.1384 17.8781 15.5655L17.8065 14.8017L9.66709 14.7301C5.20352 14.7062 1.4799 14.7539 1.38442 14.8494Z" fill="var(--fill-0, black)"/>
</g>
</svg>
