<svg preserveAspectRatio="none" width="100%" height="100%" overflow="visible" style="display: block;" viewBox="0 0 21 21" fill="none" xmlns="http://www.w3.org/2000/svg">
<path id="Union" fill-rule="evenodd" clip-rule="evenodd" d="M0 10.0833C0 4.51432 4.51432 0 10.0833 0C15.6523 0 20.1667 4.51432 20.1667 10.0833C20.1667 15.6523 15.6523 20.1667 10.0833 20.1667C4.51432 20.1667 0 15.6523 0 10.0833ZM10.0833 1.83333C5.52685 1.83333 1.83333 5.52685 1.83333 10.0833C1.83333 14.6398 5.52685 18.3333 10.0833 18.3333C14.6398 18.3333 18.3333 14.6398 18.3333 10.0833C18.3333 5.52685 14.6398 1.83333 10.0833 1.83333ZM9.1575 6.41667C9.1575 5.91041 9.56791 5.5 10.0742 5.5H10.0833C10.5896 5.5 11 5.91041 11 6.41667C11 6.92293 10.5896 7.33333 10.0833 7.33333H10.0742C9.56791 7.33333 9.1575 6.92293 9.1575 6.41667ZM10.0833 9.16667C10.5896 9.16667 11 9.57707 11 10.0833V13.75C11 14.2563 10.5896 14.6667 10.0833 14.6667C9.57707 14.6667 9.16667 14.2563 9.16667 13.75V10.0833C9.16667 9.57707 9.57707 9.16667 10.0833 9.16667Z" fill="var(--fill-0, black)"/>
</svg>
