<svg preserveAspectRatio="none" width="100%" height="100%" overflow="visible" style="display: block;" viewBox="0 0 17 20" fill="none" xmlns="http://www.w3.org/2000/svg">
<g id="icon">
<path id="Vector" d="M0.842389 0.0640426C0.569158 0.155119 0.36044 0.310709 0.223825 0.519427C-0.0228415 0.887529 -0.00386717 0.223427 0.00372257 9.7827L0.0151072 18.4919L0.113774 18.7044C0.239004 18.9739 0.443927 19.1788 0.713363 19.304L0.925876 19.4027H6.06792H11.21L11.4225 19.304C11.6919 19.1788 11.8968 18.9739 12.0221 18.7044L12.1207 18.4919L12.1321 16.5262L12.1435 14.5642H11.5325H10.9254V15.1714V15.7786H6.06792H1.21049V9.09963V2.42066H6.06792H10.9254V3.02784V3.63501H11.5325H12.1435L12.1321 2.27645L12.1207 0.921683L12.0221 0.70917C11.8968 0.439735 11.6919 0.234812 11.4225 0.109581L11.21 0.0109144L6.12485 0.00332467C1.30916 -0.00426507 1.02834 -0.00426507 0.842389 0.0640426Z" fill="var(--fill-0, black)"/>
<path id="Vector_2" d="M8.12835 4.92205C7.85512 5.01312 7.6464 5.16871 7.50979 5.37364C7.2783 5.72277 7.28209 5.68102 7.28209 8.48164C7.28209 10.2956 7.29348 11.0925 7.32763 11.2177C7.43009 11.6352 7.78302 11.9881 8.20045 12.0906C8.30291 12.1171 8.66722 12.1361 9.04291 12.1361H9.71081V12.7964C9.71081 13.5402 9.74117 13.6616 9.95368 13.8248C10.1131 13.9462 10.3028 13.9804 10.4888 13.9197C10.5685 13.8931 11.1529 13.4833 11.7904 13.0051L12.9516 12.1361H14.424C15.4145 12.1361 15.961 12.1209 16.0786 12.0906C16.496 11.9881 16.849 11.6352 16.9514 11.2177C17.0159 10.9673 17.0159 6.01877 16.9514 5.7683C16.849 5.35087 16.496 4.99795 16.0786 4.89548C15.9496 4.86133 14.8604 4.84995 12.113 4.84995C8.56856 4.85374 8.3143 4.85754 8.12835 4.92205ZM10.6064 7.95794C10.8151 8.05282 10.9328 8.25015 10.9328 8.49302C10.9328 8.73589 10.8151 8.93322 10.6064 9.0281C10.4053 9.11917 10.2649 9.11917 10.0751 9.0243C9.85881 8.91805 9.77532 8.78522 9.75635 8.53097C9.74117 8.26912 9.82845 8.09076 10.0372 7.97312C10.2155 7.86687 10.4015 7.86307 10.6064 7.95794ZM14.2495 7.95794C14.4582 8.05282 14.5758 8.25015 14.5758 8.49302C14.5758 8.73589 14.4582 8.93322 14.2495 9.0281C14.0483 9.11917 13.9079 9.11917 13.7182 9.0243C13.5095 8.92184 13.4184 8.78522 13.3994 8.54994C13.3767 8.2881 13.4677 8.10215 13.6727 7.98071C13.8586 7.86687 14.037 7.86307 14.2495 7.95794Z" fill="var(--fill-0, black)"/>
</g>
</svg>
